<svg width="240" height="240" viewBox="0 0 240 240" fill="none" xmlns="http://www.w3.org/2000/svg">
<g opacity="0.5" filter="url(#filter0_f_8075_495)">
<circle cx="120" cy="120" r="48" fill="#44C5FF"/>
</g>
<path fill-rule="evenodd" clip-rule="evenodd" d="M169.026 152.475C168.071 153.456 167.117 154.401 166.163 155.381C166.006 155.521 165.868 155.521 165.712 155.381L154 143.565C155.787 142.427 157.001 140.816 157.643 138.768C158.216 135.459 157.643 132.326 155.995 129.402C156.949 128.212 157.799 126.951 158.528 125.604C160.749 120.667 159.968 116.273 156.203 112.457C159.292 106.505 158.042 101.778 152.438 98.2767L165.92 84.6746C166.076 84.517 166.215 84.517 166.371 84.6746L169.251 87.5805C170.205 87.9657 171.038 87.7906 171.784 87.0204C173.172 80.4906 174.491 73.9434 175.775 67.3787C176.452 65.0329 175.602 63.9475 173.224 64.14C166.492 65.453 159.777 66.9235 153.115 68.4815C152.49 69.1117 152.299 69.847 152.559 70.7048C153.548 71.9302 154.624 73.0856 155.769 74.171L144.387 85.6549C142.097 84.7096 139.702 84.2019 137.204 84.0794C132.918 75.3089 127.175 74.1885 119.974 80.7357C112.67 74.1535 106.926 75.3089 102.727 84.1844C100.35 84.1144 98.06 84.5345 95.8738 85.4273C92.0739 81.6985 88.3261 77.9523 84.5956 74.1535C85.6714 73.0681 86.7472 71.9827 87.8056 70.9149C88.1873 70.0746 88.0832 69.3043 87.4759 68.5691C80.1017 66.6959 72.6581 65.1554 65.1278 64C64.4858 64.5077 64.1215 65.1729 64.0174 66.0132C65.3881 73.0331 66.8282 80.018 68.3377 86.9853C68.9971 87.5981 69.7605 87.7906 70.6628 87.5455C71.7559 86.6527 72.797 85.6899 73.7513 84.6395C73.8901 84.482 74.0462 84.482 74.185 84.6395C78.6269 89.1036 83.034 93.5501 87.4585 98.0316C81.6113 101.568 80.2752 106.399 83.4678 112.527C79.772 116.01 78.8524 120.142 80.709 124.903C81.4898 126.514 82.4094 128.037 83.4678 129.472C82.7391 131.083 82.1838 132.746 81.8195 134.497C81.0907 138.47 82.3747 141.551 85.6714 143.757C81.8368 147.626 78.0196 151.495 74.1677 155.364C74.0289 155.504 73.8727 155.504 73.7339 155.364C72.7623 154.313 71.7212 153.333 70.6454 152.458C69.7605 152.213 68.9797 152.388 68.3204 153.018C66.8109 159.985 65.3707 166.97 64 173.99C64.0694 174.9 64.5032 175.531 65.336 175.881C72.4326 174.76 79.5118 173.43 86.5563 171.854C87.3891 171.277 87.6494 170.489 87.3371 169.509C86.3481 168.283 85.2897 167.128 84.1271 166.042C86.9033 163.224 89.6968 160.423 92.525 157.674C94.8154 159.268 97.3139 160.335 100.038 160.913C102.623 162.331 105.347 163.294 108.228 163.819C112.375 164.607 116.157 163.819 119.61 161.473C120.894 162.471 122.334 163.189 123.93 163.591C129.222 164.484 134.237 163.591 138.956 160.913C141.819 160.37 144.404 159.215 146.712 157.464C149.627 160.283 152.49 163.154 155.336 166.042C154.19 167.128 153.115 168.283 152.126 169.509C151.9 170.331 152.074 171.032 152.664 171.627C159.344 173.202 166.041 174.603 172.791 175.863C174.543 176.318 175.567 175.636 175.879 173.85C174.508 166.795 173.034 159.758 171.455 152.755C170.726 152.038 169.91 151.915 169.008 152.423L169.026 152.475ZM75.4864 80.4206C74.5147 79.7029 73.5604 79.7029 72.6061 80.4206C72.0509 80.9633 71.4956 81.541 70.9404 82.0837C70.0208 77.4796 69.1706 72.8755 68.4072 68.254C72.849 69.1643 77.2562 70.1446 81.6807 71.1599C81.0734 71.7902 80.5355 72.4554 80.015 73.1731C79.8588 73.7683 79.8588 74.3635 80.015 74.9412C84.1098 79.0726 88.2046 83.2041 92.2821 87.318C90.4429 89.3662 89.5233 91.7995 89.506 94.5654C84.8212 89.8388 80.1364 85.1297 75.469 80.4031L75.4864 80.4206ZM80.2405 164.869C79.9109 165.517 79.8588 166.165 80.015 166.883C80.5528 167.653 81.1775 168.353 81.8889 169.001C77.4644 169.981 73.0572 170.891 68.6154 171.802C68.546 171.609 68.4592 171.417 68.3898 171.242C69.2574 166.795 70.177 162.366 71.1486 157.955C71.9468 159.022 72.9358 159.758 74.133 160.195C74.6015 160.073 75.0526 159.88 75.469 159.635C79.5638 155.539 83.624 151.407 87.6147 147.258C87.9964 149.044 88.4649 150.83 89.0548 152.615C89.3671 153.385 89.7662 154.086 90.2694 154.733L80.2058 164.887L80.2405 164.869ZM103.907 144.335C107.152 147.468 111.039 148.641 115.515 147.801C116.348 147.644 117.146 147.468 117.962 147.241C118.204 150.97 118.257 154.681 118.066 158.41C114.63 160.598 110.986 161.001 107.117 159.635C105.452 159.11 103.821 158.427 102.242 157.622C101.201 155.504 100.871 153.298 101.27 151.04C100.611 150.007 99.691 149.657 98.4938 150.042C98.0253 150.427 97.6783 150.9 97.5048 151.477C97.3313 153.14 97.418 154.786 97.7303 156.397C93.9825 154.716 91.9351 151.81 91.536 147.679C91.4666 146.103 91.536 144.545 91.7616 143.004C91.2584 141.919 90.4256 141.359 89.2283 141.324C85.4979 139.801 84.4395 137.14 86.0184 133.411C86.2266 132.623 86.591 131.976 87.1289 131.398C89.9571 131.976 92.8026 131.976 95.6309 131.398C95.8217 132.974 96.3075 134.462 97.0536 135.862C97.8344 136.597 98.6673 136.702 99.6042 136.195C100.073 135.792 100.281 135.267 100.281 134.637C97.418 129.07 98.8234 125.061 104.48 122.575C106.284 121.945 108.141 121.437 109.997 121.017C111.281 119.371 110.9 118.216 108.887 117.551C105.122 118.041 101.738 119.424 98.7193 121.682C97.0363 123.31 95.8564 125.253 95.1797 127.494C92.4209 128.264 89.6968 128.212 86.9901 127.389C85.4111 125.761 84.3354 123.818 83.7801 121.577C83.4505 118.986 84.266 116.833 86.2093 115.117C88.8466 116.798 91.6748 117.428 94.7113 117.008C95.6656 115.87 95.5788 114.837 94.4857 113.892C91.883 113.804 89.5233 113.017 87.4065 111.546C84.2139 106.347 85.4632 102.688 91.1717 100.605C92.1433 101.34 93.115 102.128 94.0519 102.951C96.7413 105.052 99.7777 105.874 103.109 105.419C103.873 104.491 103.942 103.528 103.335 102.513C99.5695 102.128 96.4464 100.517 93.9305 97.7165C92.8026 90.8367 95.7003 87.6156 102.675 88.0182C103.022 89.2261 103.664 90.2064 104.671 90.9242C106.545 90.9592 107.256 90.0314 106.77 88.1232C106.406 87.4405 106.076 86.7228 105.781 86.005C106.614 83.8343 107.967 82.0662 109.772 80.6482C110.31 80.4906 110.848 80.2981 111.316 80.088C112.6 80.1755 113.797 80.5957 114.856 81.3309C115.984 82.2412 117.042 83.2391 118.066 84.3419C118.204 88.2108 118.204 92.0621 118.066 95.9484C115.307 97.6115 112.774 97.3664 110.431 95.1606C108.228 94.863 107.447 95.8084 108.106 97.9616C111.021 100.71 114.353 101.445 118.17 100.185V107.327C115.012 106.592 111.923 106.785 108.887 107.87C107.135 108.605 106.024 109.866 105.573 111.669C105.573 112.824 106.163 113.454 107.325 113.559C107.707 113.472 108.072 113.349 108.453 113.209C109.338 111.861 110.605 111.039 112.201 110.758C114.214 110.566 116.192 110.688 118.17 111.091C118.204 117.411 118.17 123.748 118.066 130.068C116.487 130.96 114.821 131.153 113.086 130.61C112.218 130.103 111.281 129.7 110.31 129.385C108.731 129.752 108.228 130.698 108.766 132.291C111.542 134.567 114.682 135.249 118.17 134.304C118.239 137.333 118.17 140.344 117.944 143.337C114.335 144.878 110.882 144.65 107.551 142.672C107.03 142.147 106.51 141.621 105.989 141.096C103.439 140.921 102.745 142.007 103.89 144.335H103.907ZM147.701 87.458C151.588 83.2916 155.579 79.1952 159.639 75.1863C159.968 74.5386 160.038 73.8734 159.864 73.1731C159.361 72.4729 158.806 71.7902 158.216 71.1599C162.502 70.1796 166.787 69.2168 171.038 68.254C171.299 68.324 171.437 68.499 171.489 68.8141C170.622 73.2432 169.702 77.6722 168.713 82.0837C167.915 81.0333 166.926 80.2981 165.729 79.8604C165.26 79.983 164.827 80.1755 164.41 80.4206C159.569 85.2873 154.746 90.1539 149.922 95.0381C149.887 92.4822 149.159 90.1714 147.719 88.1232C147.562 87.8957 147.562 87.6856 147.719 87.458H147.701ZM145.706 136.317C145.393 136.807 145.324 137.315 145.48 137.875C146.556 140.098 147.441 142.409 148.135 144.79C148.603 148.799 147.302 152.108 144.266 154.716C143.502 155.241 142.687 155.661 141.837 155.941C142.305 154.331 142.357 152.668 141.941 151.04C141.49 149.832 140.657 149.429 139.407 149.814C138.922 149.989 138.575 150.339 138.418 150.795C138.679 153.21 138.28 155.521 137.186 157.709C133.89 159.6 130.35 160.458 126.568 160.283C124.694 160.09 123.028 159.39 121.588 158.165C121.484 154.436 121.449 150.725 121.484 146.996C124.572 147.924 127.661 148.029 130.767 147.328C132.849 146.716 134.584 145.578 135.955 143.88C136.718 141.446 135.885 140.519 133.421 141.079C131.252 143.547 128.528 144.51 125.232 143.985C123.965 143.757 122.716 143.495 121.466 143.197V134.041C124.711 134.969 127.73 134.479 130.541 132.606C131.704 130.225 130.975 129.175 128.337 129.49C126.151 130.908 123.878 131.083 121.484 130.05V111.074C123.635 110.566 125.77 110.461 127.886 110.741C129.326 111.039 130.437 111.826 131.218 113.087C132.797 113.629 133.82 113.122 134.306 111.529C133.543 109.323 132.033 107.905 129.76 107.292C127.071 106.697 124.381 106.697 121.692 107.292C121.449 104.824 121.397 102.373 121.588 99.9223C124.676 101.025 127.574 100.693 130.333 98.9244C130.888 98.4167 131.374 97.8741 131.756 97.2438C132.085 95.8084 131.53 95.0031 130.107 94.793C128.858 95.4057 127.609 96.0534 126.342 96.6837C124.607 97.0513 123.028 96.7187 121.588 95.6858C121.449 91.9045 121.449 88.1057 121.588 84.3244C123.132 82.2762 125.093 80.8583 127.453 80.0705C129.778 80.2455 131.513 81.3659 132.641 83.4316C133.04 84.2544 133.456 85.0597 133.855 85.8825C133.126 87.0554 132.797 88.3158 132.866 89.6813C133.213 90.364 133.768 90.6441 134.532 90.5741C134.914 90.5391 135.278 90.4865 135.642 90.3465C136.163 89.5937 136.614 88.771 136.961 87.8957C143.936 87.3705 146.834 90.5741 145.706 97.4889C143.381 100.342 140.396 101.865 136.753 102.075C135.573 103.196 135.573 104.299 136.753 105.419C139.737 105.629 142.461 104.894 144.942 103.196C146.018 102.181 147.163 101.253 148.361 100.395C153.878 102.373 155.214 105.944 152.351 111.109C150.252 112.754 147.857 113.612 145.168 113.682C143.988 114.802 143.988 115.905 145.168 117.026C148.066 117.271 150.755 116.64 153.236 115.135C155.197 116.57 156.082 118.496 155.891 120.947C155.353 123.398 154.208 125.516 152.455 127.302C149.731 128.037 147.007 128.037 144.266 127.302C143.346 123.835 141.281 121.297 138.071 119.722C135.434 118.286 132.641 117.603 129.674 117.708C128.598 118.689 128.528 119.722 129.448 120.824C132.45 121.332 135.243 122.382 137.846 123.94C140.344 125.954 141.125 128.51 140.171 131.626C139.841 132.606 139.512 133.551 139.182 134.532C139.668 136.335 140.743 136.772 142.392 135.862C143.103 134.514 143.624 133.096 143.953 131.626C144.057 131.398 144.248 131.24 144.509 131.188C147.233 131.766 149.957 131.766 152.681 131.188C154.069 133.236 154.555 135.459 154.121 137.875C153.375 139.311 152.264 140.344 150.807 140.991C150.096 139.538 149.436 138.033 148.812 136.527C147.84 135.127 146.816 135.057 145.723 136.3L145.706 136.317ZM171.68 171.784C167.169 170.839 162.675 169.876 158.199 168.878C158.875 168.178 159.482 167.425 160.072 166.655C160.229 166.025 160.159 165.43 159.847 164.869C156.429 161.421 152.993 157.955 149.558 154.488C150.998 152.055 151.744 149.412 151.779 146.558C156.221 150.935 160.645 155.364 165.035 159.845C165.555 160.108 166.059 160.178 166.596 160.073C167.429 159.408 168.245 158.707 169.026 157.955C169.997 162.454 170.952 166.953 171.906 171.452C171.836 171.557 171.767 171.679 171.68 171.802V171.784Z" fill="#44C5FF"/>
<defs>
<filter id="filter0_f_8075_495" x="0" y="0" width="240" height="240" filterUnits="userSpaceOnUse" color-interpolation-filters="sRGB">
<feFlood flood-opacity="0" result="BackgroundImageFix"/>
<feBlend mode="normal" in="SourceGraphic" in2="BackgroundImageFix" result="shape"/>
<feGaussianBlur stdDeviation="36" result="effect1_foregroundBlur_8075_495"/>
</filter>
</defs>
</svg>
