<svg width="240" height="240" viewBox="0 0 240 240" fill="none" xmlns="http://www.w3.org/2000/svg">
<g opacity="0.5" filter="url(#filter0_f_8075_393)">
<circle cx="120" cy="120" r="48" fill="#44C5FF"/>
</g>
<path fill-rule="evenodd" clip-rule="evenodd" d="M127.027 73.504C124.717 75.8494 122.389 78.1422 120.026 80.4001C117.663 78.1422 115.336 75.8494 113.025 73.504C113.865 72.6814 114.705 71.8412 115.528 71.0011C116.421 71.8762 117.278 72.7514 118.153 73.6265C118.258 70.406 118.311 67.203 118.258 64H121.759C121.724 67.203 121.759 70.406 121.864 73.6265L124.489 71.0011C125.33 71.8412 126.17 72.6814 127.01 73.504H127.027Z" fill="#44C5FF"/>
<path fill-rule="evenodd" clip-rule="evenodd" d="M108.194 73.9591C107.127 77.057 106.024 80.155 104.904 83.253C101.911 82.2379 98.9355 81.2227 95.9425 80.19C95.8725 79.1399 96.1 78.1247 96.5901 77.1271C97.8328 77.1271 99.0405 77.4071 100.196 78.0197C98.953 75.1317 97.6053 72.2263 96.1525 69.3733C96.1875 69.1983 96.2575 69.0583 96.3626 68.9358C97.1327 68.5857 97.8678 68.1832 98.5504 67.7456C98.8304 67.6931 99.093 67.7806 99.3205 67.9556C100.703 70.7211 102.086 73.4865 103.469 76.2694C104.029 75.1667 104.414 73.9941 104.659 72.7689C105.884 73.0139 107.057 73.4165 108.159 73.9766L108.194 73.9591Z" fill="#44C5FF"/>
<path fill-rule="evenodd" clip-rule="evenodd" d="M144.53 80.1725C141.537 81.2052 138.544 82.2203 135.551 83.2355C134.431 80.1375 133.346 77.0395 132.261 73.9416C133.381 73.3815 134.554 72.9789 135.761 72.7339C136.006 73.9591 136.409 75.1317 136.969 76.2344C138.387 73.3815 139.822 70.546 141.24 67.7106C142.43 67.9731 143.445 68.5157 144.303 69.3383C142.832 72.2088 141.502 75.0967 140.259 77.9847C141.415 77.3721 142.605 77.092 143.865 77.092C144.355 78.0897 144.583 79.1224 144.513 80.155L144.53 80.1725Z" fill="#44C5FF"/>
<path fill-rule="evenodd" clip-rule="evenodd" d="M94.8748 93.0895C91.7068 93.8597 88.5738 94.7348 85.4584 95.715C85.0558 94.6298 84.6882 93.5446 84.3732 92.4244C85.5634 91.9344 86.8236 91.5143 88.0838 91.2343C85.2308 89.589 82.3954 87.9437 79.5424 86.2985C80.12 85.3883 80.6276 84.4257 81.0827 83.4455C84.0231 84.8283 86.8936 86.3685 89.7115 88.0488C89.5365 86.9636 89.2739 85.8609 88.9414 84.7582C89.0114 84.6007 89.0814 84.4607 89.1514 84.3207C90.1666 83.8656 91.1817 83.6556 92.2144 83.6556C93.1946 86.7711 94.0697 89.904 94.8398 93.072L94.8748 93.0895Z" fill="#44C5FF"/>
<path fill-rule="evenodd" clip-rule="evenodd" d="M152.406 91.2343C153.684 91.5318 154.927 91.9344 156.117 92.4244C155.784 93.5271 155.417 94.6123 155.032 95.715C151.916 94.7348 148.783 93.8597 145.615 93.0895C146.42 89.869 147.296 86.6485 148.241 83.463C149.291 83.6906 150.288 83.9706 151.304 84.3557C151.374 84.4957 151.444 84.6357 151.514 84.7932C151.164 85.8784 150.919 86.9811 150.744 88.0838C153.474 86.491 156.257 84.9508 159.057 83.4805C159.792 84.3557 160.388 85.3008 160.913 86.3335C158.077 87.9787 155.242 89.624 152.389 91.2693L152.406 91.2343Z" fill="#44C5FF"/>
<path fill-rule="evenodd" clip-rule="evenodd" d="M131.403 103.591C130.458 98.1128 127.255 94.9098 121.777 93.9647V90.2541H118.276V93.9647C112.815 94.9098 109.595 98.1128 108.649 103.591H104.939V107.092H108.649C109.595 112.57 112.815 115.773 118.276 116.718V120.429H121.777V116.718C127.255 115.773 130.458 112.57 131.403 107.092H135.114V103.591H131.403ZM127.902 107.319C127.027 110.382 125.05 112.36 121.987 113.235C121.777 112.15 121.707 111.065 121.777 109.945H118.276C118.346 111.047 118.276 112.133 118.066 113.235C115.003 112.36 113.043 110.382 112.168 107.319C113.235 107.109 114.338 107.022 115.441 107.109V103.609C114.355 103.679 113.253 103.609 112.168 103.399C112.64 101.963 113.358 100.686 114.338 99.5656C115.423 98.6904 116.596 98.0078 117.838 97.4827C118.258 98.4804 118.416 99.5831 118.276 100.773H121.777C121.707 99.6706 121.777 98.5854 121.987 97.4827C125.05 98.3754 127.027 100.336 127.902 103.399C126.817 103.609 125.732 103.696 124.612 103.609V107.109C125.715 107.039 126.8 107.109 127.902 107.319Z" fill="#44C5FF"/>
<path fill-rule="evenodd" clip-rule="evenodd" d="M90.4816 106.444C88.2238 108.807 85.9309 111.135 83.5856 113.445C82.7454 112.605 81.9228 111.765 81.0827 110.925C81.9578 110.05 82.8329 109.175 83.6906 108.299C80.4876 108.194 77.2846 108.159 74.0816 108.194V104.694C77.2846 104.746 80.4876 104.694 83.6906 104.589C82.8154 103.714 81.9403 102.839 81.0827 101.981C81.9228 101.176 82.7279 100.336 83.4805 99.4605C85.8959 101.718 88.2238 104.046 90.4816 106.462V106.444Z" fill="#44C5FF"/>
<path fill-rule="evenodd" clip-rule="evenodd" d="M166.409 108.177C163.206 108.142 159.985 108.177 156.782 108.282C157.657 109.175 158.532 110.032 159.407 110.907C158.567 111.747 157.727 112.588 156.887 113.428C154.559 111.117 152.249 108.79 149.991 106.427C152.266 104.099 154.524 101.753 156.782 99.4255C157.692 100.213 158.567 101.053 159.407 101.946C158.532 102.821 157.657 103.696 156.782 104.554C159.985 104.659 163.206 104.711 166.409 104.659V108.177Z" fill="#44C5FF"/>
<path fill-rule="evenodd" clip-rule="evenodd" d="M117.401 125.26C114.53 129.163 110.732 130.44 106.024 129.093C104.134 128.305 102.559 127.097 101.316 125.487C101.176 125.312 101.211 125.155 101.421 125.05C102.366 124.542 103.241 123.964 104.046 123.299C106.794 126.59 109.945 126.975 113.463 124.489C113.865 124.139 114.198 123.737 114.443 123.299C115.406 123.982 116.403 124.629 117.401 125.26Z" fill="#44C5FF"/>
<path fill-rule="evenodd" clip-rule="evenodd" d="M138.842 125.26C135.971 129.163 132.173 130.44 127.465 129.093C125.575 128.305 124.017 127.097 122.774 125.487C122.617 125.312 122.652 125.155 122.879 125.05C123.807 124.542 124.682 123.964 125.487 123.299C128.13 126.432 131.193 126.905 134.676 124.717C135.166 124.314 135.569 123.824 135.866 123.299C136.829 123.982 137.827 124.629 138.824 125.26H138.842Z" fill="#44C5FF"/>
<path fill-rule="evenodd" clip-rule="evenodd" d="M172.097 168.246C169.279 166.636 162.505 164.448 159.337 163.468C151.374 160.878 143.392 158.27 135.446 155.662C135.306 153.544 135.306 151.426 135.446 149.308C141.485 145.003 145.195 139.157 146.595 131.806C150.096 130.93 152.511 128.813 153.807 125.452C154.227 123.019 154.559 120.586 154.804 118.118C154.699 117.121 154.524 116.141 154.262 115.16C152.879 111.922 150.429 110.19 146.91 109.91C146.7 99.7581 142.342 91.9869 133.801 86.596C124.524 81.4852 112.238 81.9053 103.066 88.7139C103.031 88.7489 102.996 88.7664 102.961 88.7839C96.5201 94.3147 93.2471 101.351 93.1071 109.892C92.2844 109.857 91.4968 109.962 90.6917 110.225C87.0336 111.52 85.0558 114.11 84.7932 117.996C85.0033 120.131 85.2483 122.232 85.5634 124.349C86.7711 128.34 89.3965 130.808 93.4396 131.788C94.8573 139.139 98.5679 144.985 104.589 149.291C104.746 151.409 104.746 153.526 104.589 155.644C93.1771 159.39 81.7653 163.153 70.3535 166.916C66.8179 168.281 64.7001 170.802 64 174.46V176H67.5005C67.6056 173.392 68.8483 171.537 71.2111 170.417C82.4654 166.584 93.7722 162.908 105.131 159.372C105.376 160.685 105.919 161.84 106.759 162.873C110.4 167.126 114.81 170.329 119.991 172.499C125.172 170.329 129.583 167.109 133.223 162.873C134.063 161.84 134.606 160.685 134.851 159.372C142.43 161.665 149.973 164.081 157.5 166.619C157.5 166.619 157.535 166.619 157.57 166.654C159.495 167.371 165.761 169.314 167.669 169.979C168.666 170.434 169.594 170.942 170.522 171.502C171.852 172.692 172.534 174.197 172.499 176H176V174.46C175.545 171.869 174.25 169.769 172.062 168.229L172.097 168.246ZM146.928 113.445C149.483 113.988 150.936 115.563 151.321 118.136C151.094 120.306 150.761 122.459 150.323 124.594C149.658 126.187 148.521 127.29 146.928 127.885V113.445ZM93.002 128.095C91.3218 127.29 90.0966 126.065 89.2915 124.384C88.8364 122.337 88.5213 120.254 88.3113 118.153C88.6263 115.843 89.8515 114.285 92.0219 113.463H93.1071C93.1421 118.346 93.107 123.229 93.002 128.113V128.095ZM131.508 158.725C129.74 161.875 127.29 164.396 124.174 166.268C122.827 167.074 121.444 167.844 120.026 168.579C116.298 166.724 112.973 164.308 110.067 161.368C109.262 160.318 108.667 159.145 108.317 157.867C108.212 155.749 108.177 153.632 108.212 151.514C116.018 154.997 123.824 154.997 131.631 151.514C131.946 153.929 131.893 156.344 131.526 158.725H131.508ZM116.088 150.306C105.044 147.733 98.5854 140.855 96.7126 129.653C96.6776 125.96 96.6426 122.284 96.6076 118.591C96.5726 114.32 96.6776 110.067 96.9401 105.797C98.0603 100.266 100.668 95.6624 104.834 91.9694C113.025 85.9309 121.689 85.2483 128.988 88.1888C137.371 91.9694 142.15 98.4279 143.322 107.547C143.48 114.845 143.48 122.144 143.322 129.425C142.972 132.856 141.975 136.076 140.277 139.052C134.519 147.663 126.467 151.426 116.106 150.323L116.088 150.306Z" fill="#44C5FF"/>
<defs>
<filter id="filter0_f_8075_393" x="0" y="0" width="240" height="240" filterUnits="userSpaceOnUse" color-interpolation-filters="sRGB">
<feFlood flood-opacity="0" result="BackgroundImageFix"/>
<feBlend mode="normal" in="SourceGraphic" in2="BackgroundImageFix" result="shape"/>
<feGaussianBlur stdDeviation="36" result="effect1_foregroundBlur_8075_393"/>
</filter>
</defs>
</svg>
