<svg width="240" height="240" viewBox="0 0 240 240" fill="none" xmlns="http://www.w3.org/2000/svg">
<g opacity="0.5" filter="url(#filter0_f_8075_344)">
<circle cx="120" cy="120" r="48" fill="#44C5FF"/>
</g>
<path fill-rule="evenodd" clip-rule="evenodd" d="M175.431 156.616C169.745 158.051 164.023 159.346 158.267 160.483C157.497 160.361 156.903 159.976 156.518 159.311C156.36 153.501 156.36 147.709 156.518 141.917C157.34 140.674 158.407 140.447 159.684 141.217C159.929 141.479 160.139 141.794 160.279 142.144C160.349 145.679 160.437 149.196 160.507 152.731C172.054 137.49 174.871 120.708 168.975 102.422C162.449 85.9559 150.744 75.1067 133.826 69.8745C111.519 64.7999 93.0604 71.0469 78.4864 88.5632C66.9042 104.977 64.8747 122.511 72.3804 141.217C75.1272 147.184 78.8188 152.521 83.4202 157.193C83.7002 159.801 82.6504 160.64 80.2535 159.661C66.9042 145.627 61.7779 128.968 64.8747 109.719C69.2311 89.4381 81.0058 75.3691 100.216 67.5122C104.975 65.7798 109.839 64.6424 114.79 64.0999C137.587 62.945 155.258 71.7994 167.785 90.663C176.848 106.307 178.405 122.668 172.491 139.782C170.392 145.294 167.523 150.351 163.918 154.936C166.823 154.516 169.727 153.973 172.614 153.309C175.606 152.696 176.533 153.798 175.431 156.598V156.616Z" fill="#44C5FF"/>
<path fill-rule="evenodd" clip-rule="evenodd" d="M160.262 113.236C160.087 112.641 159.754 112.204 159.212 111.941C156.57 111.889 153.946 111.784 151.339 111.592C150.587 108.844 149.537 106.219 148.172 103.717C149.764 101.897 151.461 100.13 153.211 98.45C153.543 97.925 153.613 97.3825 153.456 96.8051C150.534 93.4103 147.437 90.1556 144.166 87.0408C143.343 86.4108 142.486 86.3233 141.576 86.8133C139.879 88.5807 138.13 90.2606 136.293 91.8704C133.738 90.488 131.061 89.4031 128.297 88.5632C128.227 85.9734 128.14 83.4011 128.07 80.8112C127.807 80.2688 127.387 79.9013 126.775 79.7613C122.226 79.6388 117.695 79.6038 113.146 79.6388C112.603 79.8838 112.166 80.2863 111.851 80.8287C111.798 83.4535 111.693 86.0959 111.501 88.7032C108.754 89.4381 106.13 90.488 103.628 91.8704C101.808 90.2606 100.041 88.5807 98.3442 86.8133C97.8368 86.4808 97.2944 86.4108 96.717 86.5858C93.3229 89.5081 90.0686 92.5879 86.9544 95.8602C86.3245 96.6826 86.2371 97.5575 86.7269 98.4675C88.494 100.147 90.1736 101.915 91.7657 103.735C90.4011 106.237 89.3338 108.862 88.599 111.609C85.9921 111.819 83.3677 111.924 80.7259 111.959C80.1835 112.221 79.8336 112.659 79.6761 113.254C79.5187 117.804 79.5187 122.336 79.6761 126.885C79.8511 127.498 80.1835 127.935 80.7259 128.18C83.3328 128.25 85.9046 128.338 88.494 128.408C89.3163 131.19 90.4011 133.85 91.7832 136.405C90.1911 138.242 88.5115 139.992 86.7444 141.689C86.2546 142.599 86.342 143.439 86.9719 144.279C89.9112 147.219 92.833 150.159 95.7723 153.099C96.5946 153.728 97.4519 153.798 98.3617 153.326C100.059 151.559 101.826 149.861 103.645 148.269C105.08 148.969 106.532 149.634 108.002 150.264C97.8543 155.093 92.0457 163.09 90.611 174.237C90.7685 174.972 91.1709 175.514 91.7832 175.882C110.364 176.039 128.927 176.039 147.49 175.882C147.857 175.584 148.12 175.252 148.312 174.832C147.35 163.528 141.751 155.408 131.516 150.491C133.126 149.791 134.753 149.039 136.345 148.269C138.182 149.861 139.932 151.559 141.629 153.326C142.136 153.641 142.679 153.711 143.256 153.553C146.668 150.631 149.922 147.534 153.019 144.262C153.648 143.439 153.736 142.582 153.246 141.672C151.496 139.974 149.799 138.225 148.207 136.387C149.572 133.832 150.674 131.173 151.496 128.39C154.086 128.32 156.675 128.233 159.265 128.163C159.807 127.918 160.157 127.48 160.314 126.868C160.472 122.318 160.472 117.786 160.314 113.236H160.262ZM113.845 124.873C111.116 126.168 108.982 128.093 107.389 130.63C102.316 123.718 102.246 116.754 107.162 109.719C110.136 106.272 113.863 104.242 118.324 103.612C127.562 103.56 133.476 107.952 136.083 116.771C137.027 122.196 135.715 126.973 132.076 131.103C127.615 124.436 121.526 122.371 113.863 124.873H113.845ZM121.614 147.674C114.458 148.199 110.381 144.909 109.384 137.805C109.874 132.573 112.603 129.248 117.607 127.813C123.941 127.323 127.895 130.14 129.487 136.282C129.889 142.197 127.282 146.012 121.614 147.674ZM142.871 168.007C143.361 169.355 143.781 170.737 144.166 172.12C127.79 172.242 111.414 172.277 95.0549 172.242C97.3469 162.005 103.523 155.443 113.618 152.609C115.28 152.259 116.925 151.979 118.552 151.786C130.117 152.119 138.217 157.508 142.888 168.025L142.871 168.007ZM156.378 124.278C153.946 124.243 151.531 124.278 149.099 124.401C148.767 124.506 148.487 124.698 148.277 124.978C147.612 127.305 146.825 129.563 145.933 131.803C145.04 133.43 144.218 135.092 143.466 136.755C143.466 137.175 143.588 137.56 143.816 137.927C145.425 139.537 147.035 141.147 148.645 142.757C146.65 144.752 144.638 146.764 142.661 148.741C140.964 146.974 139.214 145.294 137.377 143.684C136.905 143.527 136.433 143.527 135.96 143.684C134.438 144.752 132.793 145.574 131.026 146.152C133.196 142.932 133.966 139.415 133.371 135.565C140.019 129.213 141.944 121.601 139.127 112.764C135.523 104.4 129.137 100.007 119.969 99.6049C109.734 100.182 103.103 105.344 100.111 115.126C98.5016 122.598 100.321 129.108 105.517 134.637C105.028 138.575 105.762 142.267 107.757 145.679C106.427 145.172 105.15 144.489 103.995 143.667C103.523 143.509 103.051 143.509 102.578 143.667C100.741 145.277 98.9915 146.956 97.2944 148.724C95.2999 146.729 93.3054 144.717 91.3108 142.739L96.1397 137.91C96.3496 137.56 96.4721 137.157 96.4896 136.737C95.2299 134.392 94.0927 131.943 93.0604 129.44C92.623 128.058 92.2381 126.64 91.8882 125.223C91.6083 124.856 91.2584 124.593 90.8385 124.401C88.4065 124.278 85.9921 124.243 83.5602 124.278V115.809C86.1671 115.914 88.7565 115.809 91.3108 115.459C91.5908 115.249 91.8007 114.969 91.9057 114.636C92.8155 110.857 94.3026 107.322 96.3671 104.05C96.5421 103.402 96.4546 102.755 96.1397 102.16C94.5301 100.55 92.9205 98.9574 91.3108 97.3475C93.3229 95.3352 95.3174 93.3403 97.2944 91.3455C98.904 92.9554 100.514 94.5652 102.123 96.1751C102.473 96.3851 102.876 96.5251 103.313 96.5251C105.447 95.4052 107.634 94.3378 109.891 93.3578C111.501 92.8329 113.163 92.3604 114.825 91.9404C115.175 91.6605 115.455 91.3105 115.648 90.8905C115.752 88.4582 115.805 86.0434 115.752 83.611H124.22C124.115 86.2183 124.22 88.8082 124.57 91.363C124.78 91.643 125.06 91.8529 125.375 91.9579C129.154 92.8679 132.688 94.3553 135.96 96.4201C136.625 96.6126 137.255 96.5076 137.85 96.1926C139.459 94.5827 141.069 92.9904 142.679 91.363C144.673 93.3753 146.685 95.3702 148.662 97.365C147.052 98.9749 145.443 100.567 143.833 102.177C143.623 102.527 143.501 102.947 143.483 103.367C144.726 105.712 145.863 108.144 146.895 110.647C147.332 112.046 147.717 113.446 148.067 114.881C148.347 115.231 148.697 115.511 149.117 115.704C151.549 115.809 153.963 115.861 156.395 115.809V124.278H156.378Z" fill="#44C5FF"/>
<defs>
<filter id="filter0_f_8075_344" x="0" y="0" width="240" height="240" filterUnits="userSpaceOnUse" color-interpolation-filters="sRGB">
<feFlood flood-opacity="0" result="BackgroundImageFix"/>
<feBlend mode="normal" in="SourceGraphic" in2="BackgroundImageFix" result="shape"/>
<feGaussianBlur stdDeviation="36" result="effect1_foregroundBlur_8075_344"/>
</filter>
</defs>
</svg>
